<svg id="Layer_1" data-name="Layer 1" xmlns="http://www.w3.org/2000/svg" viewBox="0 0 579.07 122.02"><defs><style>.cls-1{fill:#1d7cc0;}.cls-2{fill:#16649c;}</style></defs><path class="cls-1" d="M69.75,130.05a60.3,60.3,0,0,0,101.91,43.66l-14-14a40.5,40.5,0,1,1-12.5-67.42l15-14.49a60.31,60.31,0,0,0-90.45,52.25Z" transform="translate(-69.75 -69.73)"/><path class="cls-2" d="M182.93,100.33a59.67,59.67,0,0,0-12.77-15.49l-39.93,40.91L114.4,109.91l-13.63,14.47,29.45,29.45,37.83-38.41Z" transform="translate(-69.75 -69.73)"/><path class="cls-1" d="M240.43,148.14v16.8h-8.1q-10.31,0-16.1-5.1t-5.8-16.9v-17.7h-7.2v-16.4h7.2V95.24h19.7v13.6h10.1v16.4h-10.1v18.1a4.94,4.94,0,0,0,1.15,3.7,5.43,5.43,0,0,0,3.85,1.1Z" transform="translate(-69.75 -69.73)"/><path class="cls-1" d="M270.13,108.84v56.1h-19.7v-56.1Z" transform="translate(-69.75 -69.73)"/><path class="cls-1" d="M372.38,114.74q5.94,6.41,5.95,17.6v32.6h-19.6v-30.1a9.5,9.5,0,0,0-2.5-7,9.09,9.09,0,0,0-6.7-2.5,9.38,9.38,0,0,0-6.95,2.55q-2.55,2.55-2.55,7.25v29.8h-19.6v-30.1a9.5,9.5,0,0,0-2.5-7,9.09,9.09,0,0,0-6.7-2.5,9.38,9.38,0,0,0-7,2.55q-2.55,2.55-2.55,7.25v29.8H282v-56.1h19.7v8.6a17.61,17.61,0,0,1,6.7-6.65,20.07,20.07,0,0,1,10.1-2.45,21.69,21.69,0,0,1,11.1,2.8,19.4,19.4,0,0,1,7.5,8,22.3,22.3,0,0,1,7.8-7.85,20.77,20.77,0,0,1,10.9-3Q366.42,108.34,372.38,114.74Z" transform="translate(-69.75 -69.73)"/><path class="cls-1" d="M485.93,148.14v16.8h-8.1q-10.31,0-16.1-5.1t-5.8-16.9v-17.7h-7.2v-16.4h7.2V95.24h19.7v13.6h10.1v16.4h-10.1v18.1a4.94,4.94,0,0,0,1.15,3.7,5.43,5.43,0,0,0,3.85,1.1Z" transform="translate(-69.75 -69.73)"/><path class="cls-1" d="M487.23,174.94h4.2a5.13,5.13,0,0,0,3.6-1.05,4.46,4.46,0,0,0,1.09-3.35v-61.7h19.61v61.4q0,21.51-21.61,21.5h-6.89Z" transform="translate(-69.75 -69.73)"/><path class="cls-1" d="M625.22,164.94l-15.3-23.2v23.2h-19.7v-74h19.7v39.7l15.4-21.8h22.9l-21.8,28.1,22.4,28Z" transform="translate(-69.75 -69.73)"/><circle class="cls-1" cx="190.68" cy="23.33" r="11.5"/><circle class="cls-1" cx="436.13" cy="23.27" r="11.5"/><path class="cls-1" d="M553.69,108.51c15.77,0,27.87,11.33,27.87,30.21v4.11H545.14c1.11,3.44,5,6.77,11.77,6.77,4.55,0,9.44-1.66,12.11-3.77l8.21,12.33c-5.33,4.55-14.88,6.66-22.88,6.66-16.76,0-29.87-10.55-29.87-28.21C524.48,121.06,536.36,108.51,553.69,108.51Zm-8.77,21.66h17.65c-.55-2.33-2.44-6.44-8.88-6.44C547.58,123.73,545.58,127.73,544.92,130.17Z" transform="translate(-69.75 -69.73)"/><path class="cls-1" d="M414.82,108.34c15.82,0,28,11.37,28,30.3v4.12H406.24c1.11,3.46,5,6.8,11.81,6.8,4.57,0,9.47-1.67,12.14-3.79l8.24,12.37c-5.34,4.56-14.92,6.68-22.94,6.68-16.82,0-30-10.58-30-28.29C385.52,120.93,397.44,108.34,414.82,108.34ZM406,130.06h17.71c-.56-2.33-2.45-6.46-8.91-6.46C408.69,123.6,406.69,127.61,406,130.06Z" transform="translate(-69.75 -69.73)"/></svg>