<?xml version="1.0" encoding="utf-8"?>
<!-- Generator: Adobe Illustrator 25.1.0, SVG Export Plug-In . SVG Version: 6.00 Build 0)  -->
<svg version="1.1" id="Layer_1" xmlns="http://www.w3.org/2000/svg" xmlns:xlink="http://www.w3.org/1999/xlink" x="0px" y="0px"
	 viewBox="0 0 579.1 122" style="enable-background:new 0 0 579.1 122;" xml:space="preserve">
<style type="text/css">
	.st0{fill:#FFFFFF;}
</style>
<path class="st0" d="M0,60.3c0,33.3,27,60.3,60.3,60.3c15.5,0,30.4-6,41.6-16.7l-14-14c-16.4,15.2-42.1,14.1-57.2-2.3
	S16.6,45.6,33,30.4c11.4-10.6,27.9-13.6,42.4-7.9l15-14.5C61.6-8.6,24.7,1.3,8,30.2C2.7,39.3,0,49.7,0,60.3L0,60.3z"/>
<path class="st0" d="M113.2,30.6c-3.4-5.8-7.7-11.1-12.8-15.5L60.5,56L44.7,40.2L31,54.7l29.4,29.4l37.8-38.4L113.2,30.6z"/>
<path class="st0" d="M170.7,78.4v16.8h-8.1c-6.9,0-12.2-1.7-16.1-5.1s-5.8-9-5.8-16.9V55.5h-7.2V39.1h7.2V25.5h19.7v13.6h10.1v16.4
	h-10.1v18.1c-0.1,1.3,0.3,2.7,1.1,3.7c1.1,0.8,2.5,1.2,3.9,1.1H170.7z"/>
<path class="st0" d="M200.4,39.1v56.1h-19.7V39.1L200.4,39.1z"/>
<path class="st0" d="M302.6,45c4,4.3,5.9,10.1,6,17.6v32.6H289V65.1c0.2-2.6-0.8-5.1-2.5-7c-1.8-1.7-4.2-2.6-6.7-2.5
	c-2.6-0.1-5.1,0.8-7,2.6c-1.7,1.7-2.5,4.1-2.5,7.2v29.8h-19.6V65.1c0.2-2.6-0.8-5.1-2.5-7c-1.8-1.7-4.2-2.6-6.7-2.5
	c-2.6-0.2-5.1,0.8-7,2.6c-1.7,1.7-2.5,4.1-2.5,7.2v29.8h-19.7V39.1H232v8.6c1.6-2.8,3.9-5.1,6.7-6.7c3.1-1.7,6.6-2.5,10.1-2.4
	c3.9-0.1,7.7,0.9,11.1,2.8c3.2,1.9,5.8,4.7,7.5,8c1.9-3.2,4.6-5.9,7.8-7.8c3.3-2,7.1-3,10.9-3C293.1,38.6,298.7,40.7,302.6,45z"/>
<path class="st0" d="M373.4,70.7h-37.1c0.3,6.3,3.1,9.5,8.3,9.5c1.7,0.1,3.4-0.4,4.8-1.4c1.3-0.9,2.2-2.2,2.6-3.7h20.8
	c-0.7,3.9-2.4,7.6-4.9,10.6c-2.6,3.2-5.9,5.7-9.6,7.4c-4,1.8-8.3,2.7-12.7,2.7c-5.2,0.1-10.3-1.1-14.9-3.4c-4.3-2.3-7.8-5.7-10-10
	c-2.5-4.7-3.7-10-3.6-15.4c-0.1-5.3,1.1-10.6,3.6-15.3c2.3-4.3,5.8-7.7,10.1-10c9.3-4.6,20.3-4.6,29.6,0c4.2,2.2,7.6,5.6,10,9.7
	c2.4,4.5,3.7,9.5,3.5,14.6C373.8,67.7,373.7,69.2,373.4,70.7z M351.6,56c-1.6-1.5-3.8-2.3-6-2.2c-2.3-0.1-4.6,0.7-6.4,2.2
	c-1.8,1.7-2.8,4-2.9,6.5h17.5C353.9,59.7,353.2,57.5,351.6,56L351.6,56z"/>
<path class="st0" d="M416.2,78.4v16.8h-8.1c-6.9,0-12.2-1.7-16.1-5.1s-5.8-9-5.8-16.9V55.5H379V39.1h7.2V25.5h19.7v13.6H416v16.4
	h-10.1v18.1c-0.1,1.3,0.3,2.7,1.1,3.7c1.1,0.8,2.5,1.2,3.9,1.1H416.2z"/>
<path class="st0" d="M417.5,105.2h4.2c1.3,0.1,2.6-0.3,3.6-1.1c0.8-0.9,1.2-2.1,1.1-3.4V39.1H446v61.4c0,14.3-7.2,21.5-21.6,21.5
	h-6.9L417.5,105.2z"/>
<path class="st0" d="M511.1,70.7H474c0.3,6.3,3.1,9.5,8.3,9.5c1.7,0.1,3.4-0.4,4.8-1.4c1.3-0.9,2.2-2.2,2.6-3.7h20.8
	c-0.7,3.9-2.4,7.6-4.9,10.6c-2.6,3.2-5.9,5.8-9.6,7.4c-4,1.8-8.3,2.7-12.7,2.7c-5.2,0.1-10.3-1.1-14.8-3.4c-4.2-2.3-7.7-5.8-10-10
	c-2.5-4.7-3.7-10-3.6-15.4c-0.1-5.3,1.1-10.6,3.6-15.3c2.3-4.3,5.8-7.7,10.1-10c9.3-4.6,20.3-4.6,29.6,0c4.2,2.2,7.7,5.6,10,9.7
	c2.4,4.5,3.7,9.5,3.5,14.6C511.6,67.7,511.4,69.2,511.1,70.7z M489.2,56c-1.6-1.5-3.8-2.3-6-2.2c-2.3-0.1-4.6,0.7-6.3,2.2
	c-1.7,1.7-2.8,4-2.8,6.5h17.5C491.6,59.7,490.9,57.5,489.2,56z"/>
<path class="st0" d="M555.5,95.2L540.2,72v23.2h-19.7v-74h19.7v39.7l15.4-21.8h22.9l-21.8,28.1l22.4,28H555.5z"/>
<circle class="st0" cx="190.7" cy="23.3" r="11.5"/>
<circle class="st0" cx="436.1" cy="23.3" r="11.5"/>
</svg>
